<svg width="400" height="230" viewBox="0 0 400 230" fill="none" xmlns="http://www.w3.org/2000/svg">
<path fill-rule="evenodd" clip-rule="evenodd" d="M5 0C2.23859 0 0 2.23858 0 5V175V195C0 197.761 2.23859 200 5 200H25H395C397.761 200 400 197.761 400 195V175C400 172.239 397.761 170 395 170H30V4.99999C30 2.23857 27.7614 0 25 0H5ZM100 84H70V70C70 67.2386 72.2386 65 75 65H95C97.7614 65 100 67.2386 100 70V84ZM70 96H100V87H70V96ZM100 131H70V99H100V131ZM70 143H100V134H70V143ZM95 165C97.7614 165 100 162.761 100 160V146H70V160C70 162.761 72.2386 165 75 165H95ZM149.519 96.4545L175.5 81.4545L168.5 69.3301C167.119 66.9387 164.061 66.1193 161.67 67.5L144.349 77.5C141.958 78.8807 141.139 81.9387 142.519 84.3301L149.519 96.4545ZM181.5 91.8468L155.519 106.847L151.019 99.0526L177 84.0526L181.5 91.8468ZM173.019 137.158L199 122.158L183 94.4449L157.019 109.445L173.019 137.158ZM205 132.55L179.019 147.55L174.519 139.756L200.5 124.756L205 132.55ZM213.5 147.272C214.881 149.664 214.061 152.722 211.67 154.103L194.349 164.103C191.958 165.483 188.9 164.664 187.519 162.272L180.519 150.148L206.5 135.148L213.5 147.272ZM333 140C333 137.239 330.761 135 328 135H314V165H328C330.761 165 333 162.761 333 160V140ZM311 165V135H302V165H311ZM299 135V165H267V135H299ZM264 165V135H255V165H264ZM252 135V165H238C235.239 165 233 162.761 233 160V140C233 137.239 235.239 135 238 135H252ZM339 100C341.761 100 344 102.239 344 105V125C344 127.761 341.761 130 339 130H325V100H339ZM322 100V130H313V100H322ZM310 130V100H278V130H310ZM275 100V130H266V100H275ZM263 130V100H249C246.239 100 244 102.239 244 105V125C244 127.761 246.239 130 249 130H263ZM331 70C331 67.2386 328.761 65 326 65H312V95H326C328.761 95 331 92.7614 331 90V70ZM309 95V65H300V95H309ZM297 65V95H265V65H297ZM262 95V65H253V95H262ZM250 65V95H236C233.239 95 231 92.7614 231 90V70C231 67.2386 233.239 65 236 65H250ZM105 84H135V70C135 67.2386 132.761 65 130 65H110C107.239 65 105 67.2386 105 70V84ZM135 96H105V87H135V96ZM105 131H135V99H105V131ZM135 143H105V134H135V143ZM135 160C135 162.761 132.761 165 130 165H110C107.239 165 105 162.761 105 160V146H135V160ZM65 84H35V70C35 67.2386 37.2386 65 40 65H60C62.7614 65 65 67.2386 65 70V84ZM35 96H65V87H35V96ZM65 131H35V99H65V131ZM35 143H65V134H35V143ZM60 165C62.7614 165 65 162.761 65 160V146H35V160C35 162.761 37.2386 165 40 165H60ZM63 210C61.8954 210 61 210.895 61 212V220C61 225.523 65.4771 230 71 230H81C86.5229 230 91 225.523 91 220V212C91 210.895 90.1046 210 89 210H63ZM310 212C310 210.895 310.895 210 312 210H338C339.105 210 340 210.895 340 212V220C340 225.523 335.523 230 330 230H320C314.477 230 310 225.523 310 220V212Z" fill="white"/>
</svg>
