<svg width="36" height="36" viewBox="0 0 36 36" fill="none" xmlns="http://www.w3.org/2000/svg">
<path d="M16.425 20.145L13.749 17.469C13.602 17.323 13.4295 17.2455 13.2315 17.2365C13.0335 17.2275 12.852 17.305 12.687 17.469C12.522 17.633 12.439 17.8115 12.438 18.0045C12.437 18.1975 12.52 18.376 12.687 18.54L15.5775 21.438C15.8195 21.681 16.102 21.8025 16.425 21.8025C16.748 21.8025 17.031 21.681 17.274 21.438L23.331 15.381C23.477 15.235 23.555 15.0615 23.565 14.8605C23.575 14.6595 23.497 14.4765 23.331 14.3115C23.165 14.1465 22.9865 14.0635 22.7955 14.0625C22.6045 14.0615 22.4265 14.1445 22.2615 14.3115L16.425 20.145ZM18 31.2645C17.864 31.2645 17.721 31.252 17.571 31.227C17.421 31.202 17.2805 31.1645 17.1495 31.1145C14.1965 29.9885 11.85 28.08 10.11 25.389C8.37 22.698 7.5 19.785 7.5 16.65V10.2255C7.5 9.71551 7.6475 9.25401 7.9425 8.84101C8.2375 8.42801 8.615 8.12801 9.075 7.94101L17.1525 4.94101C17.4445 4.83501 17.727 4.78201 18 4.78201C18.273 4.78201 18.556 4.83501 18.849 4.94101L26.925 7.94101C27.385 8.12801 27.7625 8.42801 28.0575 8.84101C28.3525 9.25401 28.5 9.71551 28.5 10.2255V16.65C28.5 19.785 27.63 22.698 25.89 25.389C24.15 28.08 21.8035 29.988 18.8505 31.113C18.7205 31.163 18.5805 31.2005 18.4305 31.2255C18.2805 31.2505 18.137 31.263 18 31.263M18 29.85C20.6 29.025 22.75 27.375 24.45 24.9C26.15 22.425 27 19.675 27 16.65V10.197C27 10.005 26.947 9.83201 26.841 9.67801C26.736 9.52401 26.587 9.40901 26.394 9.33301L18.318 6.33301C18.222 6.29301 18.116 6.27301 18 6.27301C17.884 6.27301 17.778 6.29301 17.682 6.33301L9.606 9.33301C9.413 9.40901 9.264 9.52401 9.159 9.67801C9.053 9.83201 9 10.005 9 10.197V16.65C9 19.675 9.85 22.425 11.55 24.9C13.25 27.375 15.4 29.025 18 29.85Z" fill="white"/>
</svg>
