<svg width="36" height="36" viewBox="0 0 36 36" fill="none" xmlns="http://www.w3.org/2000/svg">
<path d="M9.345 31.5C8.416 31.5 7.626 31.18 6.975 30.54C6.325 29.902 6 29.1265 6 28.2135V7.845C6 6.915 6.325 6.125 6.975 5.475C7.627 4.825 8.417 4.5 9.345 4.5H24.924V26.424H9.345C8.843 26.424 8.41 26.5945 8.046 26.9355C7.682 27.2785 7.5 27.702 7.5 28.206C7.5 28.71 7.6825 29.135 8.0475 29.481C8.4125 29.827 8.8455 30 9.3465 30H28.5V7.5H30V31.5H9.345ZM12.5775 24.924H23.4225V6H12.5775V24.924ZM11.0775 24.924V6H9.345C8.822 6 8.3835 6.1825 8.0295 6.5475C7.6765 6.9105 7.5 7.343 7.5 7.845V25.53C7.77 25.359 8.057 25.215 8.361 25.098C8.665 24.981 8.9935 24.9225 9.3465 24.9225L11.0775 24.924Z" fill="white"/>
</svg>
