<svg width="36" height="36" viewBox="0 0 36 36" fill="none" xmlns="http://www.w3.org/2000/svg">
<path d="M18.0585 25.7025C18.3905 25.7025 18.6705 25.5885 18.8985 25.3605C19.1265 25.1325 19.2405 24.8525 19.2405 24.5205C19.2405 24.1865 19.1265 23.9055 18.8985 23.6775C18.6705 23.4505 18.3905 23.337 18.0585 23.337C17.7265 23.337 17.446 23.4505 17.217 23.6775C16.988 23.9045 16.874 24.185 16.875 24.519C16.876 24.853 16.99 25.133 17.217 25.359C17.444 25.585 17.7255 25.6995 18.0585 25.7025ZM17.2845 20.7345H18.7335C18.7715 20.0645 18.8955 19.532 19.1055 19.137C19.3155 18.74 19.7165 18.2455 20.3085 17.6535C21.0285 16.9325 21.551 16.3075 21.876 15.7785C22.2 15.2485 22.362 14.6465 22.362 13.9725C22.362 12.8025 21.96 11.859 21.156 11.142C20.352 10.425 19.3705 10.0665 18.2115 10.0665C17.1435 10.0665 16.2245 10.3515 15.4545 10.9215C14.6845 11.4905 14.1215 12.173 13.7655 12.969L15.1455 13.5405C15.3965 12.9425 15.756 12.447 16.224 12.054C16.691 11.66 17.3225 11.463 18.1185 11.463C19.0625 11.463 19.7645 11.7215 20.2245 12.2385C20.6845 12.7545 20.9145 13.3415 20.9145 13.9995C20.9145 14.5005 20.7765 14.96 20.5005 15.378C20.2255 15.795 19.8405 16.2335 19.3455 16.6935C18.5385 17.4375 17.9935 18.1075 17.7105 18.7035C17.4275 19.2995 17.2855 19.9765 17.2845 20.7345ZM8.424 30C7.733 30 7.1565 29.769 6.6945 29.307C6.2325 28.845 6.001 28.268 6 27.576V8.424C6 7.733 6.2315 7.1565 6.6945 6.6945C7.1575 6.2325 7.734 6.001 8.424 6H27.5775C28.2675 6 28.844 6.2315 29.307 6.6945C29.77 7.1575 30.001 7.734 30 8.424V27.5775C30 28.2675 29.769 28.844 29.307 29.307C28.845 29.77 28.268 30.001 27.576 30H8.424ZM8.424 28.5H27.5775C27.8075 28.5 28.019 28.404 28.212 28.212C28.405 28.02 28.501 27.808 28.5 27.576V8.424C28.5 8.193 28.404 7.981 28.212 7.788C28.02 7.595 27.808 7.499 27.576 7.5H8.424C8.193 7.5 7.981 7.596 7.788 7.788C7.595 7.98 7.499 8.192 7.5 8.424V27.5775C7.5 27.8075 7.596 28.019 7.788 28.212C7.98 28.405 8.1915 28.501 8.4225 28.5" fill="white"/>
</svg>
