<svg width="36" height="36" viewBox="0 0 36 36" fill="none" xmlns="http://www.w3.org/2000/svg">
<path fill-rule="evenodd" clip-rule="evenodd" d="M18 28L28.4683 23.6578C28.9887 23.4626 29.3335 22.9651 29.3335 22.4093V11.924C29.3335 10.9931 28.4037 10.3487 27.532 10.6756L18 14L8.46833 10.6756C7.59666 10.3487 6.66683 10.9931 6.66683 11.924V22.4093C6.66683 22.9651 7.01159 23.4626 7.532 23.6578L18 28ZM17.3333 15.1796V26.28L8.02166 22.4174L8.00016 22.4093L8.00016 11.924L8.01464 11.9294L17.3333 15.1796ZM18.6667 26.28V15.1796L27.9857 11.9294L28.0002 11.924V22.4093L27.9787 22.4174L18.6667 26.28Z" fill="white"/>
<path d="M18.41 30C18.5796 30 18.7477 29.9676 18.9052 29.9046L31.1619 25.0019C31.6681 24.7994 32 24.3092 32 23.764V14C32 13.2636 31.403 12.6667 30.6667 12.6667V22.8612C30.6667 23.4065 30.3347 23.8967 29.8285 24.0992L18.4953 28.6325C18.1774 28.7597 17.8228 28.7597 17.5049 28.6325L6.17148 24.0992C5.66527 23.8967 5.33333 23.4065 5.33333 22.8612V12.6667C4.59695 12.6667 4 13.2636 4 14V23.764C4 24.3092 4.33194 24.7994 4.83815 25.0019L17.095 29.9046C17.2525 29.9676 17.4206 30 17.5902 30H18.41Z" fill="white"/>
<path d="M23.6196 10.5594C23.9645 10.4301 24.1421 10.0436 23.9787 9.7135C22.8897 7.51305 20.6216 6 18.0002 6C15.3787 6 13.1106 7.51305 12.0216 9.7135C11.8583 10.0436 12.0359 10.4301 12.3808 10.5594C12.7256 10.6887 13.1063 10.5114 13.2779 10.1855C14.1708 8.48963 15.9504 7.33333 18.0002 7.33333C20.0499 7.33333 21.8296 8.48963 22.7224 10.1855C22.894 10.5114 23.2748 10.6887 23.6196 10.5594Z" fill="white"/>
<path d="M21.122 11.496C21.4669 11.3666 21.6461 10.9783 21.4611 10.6598C20.7685 9.46798 19.4779 8.66667 18.0002 8.66667C16.5224 8.66667 15.2319 9.46798 14.5393 10.6598C14.3542 10.9783 14.5334 11.3666 14.8783 11.496C15.2231 11.6253 15.6015 11.4435 15.8124 11.1416C16.2944 10.4514 17.0945 10 18.0002 10C18.9058 10 19.706 10.4514 20.188 11.1416C20.3988 11.4435 20.7772 11.6253 21.122 11.496Z" fill="white"/>
<path d="M18.3407 12.539C18.8423 12.3509 19.0952 11.7365 18.6214 11.4866C18.4359 11.3887 18.2245 11.3333 18.0002 11.3333C17.7758 11.3333 17.5645 11.3887 17.3789 11.4866C16.9051 11.7365 17.1581 12.3509 17.6596 12.539C17.8792 12.6213 18.1212 12.6213 18.3407 12.539Z" fill="white"/>
</svg>
