<svg width="36" height="36" viewBox="0 0 36 36" fill="none" xmlns="http://www.w3.org/2000/svg">
<path d="M19.5001 30.0585V27.345H22.2121V30.0555L19.5001 30.0585ZM16.7881 27.3465V20.712H19.5001V27.3465H16.7881ZM27.3466 22.269V18H30.0571V22.269H27.3466ZM24.6346 18V15.288H27.3466V18H24.6346ZM8.65362 20.712V18H11.3656V20.712H8.65362ZM5.94312 18V15.288H8.65362V18H5.94312ZM18.0001 8.655V5.9415H20.7121V8.652L18.0001 8.655ZM7.26912 12.75H12.7501V7.269H7.26912V12.75ZM5.94312 14.0775V5.9415H14.0761V14.076L5.94312 14.0775ZM7.26912 28.731H12.9811V23.25H7.26912V28.731ZM5.94312 30.057V21.924H14.3086V30.0585L5.94312 30.057ZM23.2501 12.75H28.7311V7.269H23.2501V12.75ZM21.9226 14.0775V5.9415H30.0586V14.076L21.9226 14.0775ZM24.6346 30.0585V24.981H21.9241V22.269H27.3466V27.3465H30.0571V30.057L24.6346 30.0585ZM19.5001 20.712V18H24.6346V20.712H19.5001ZM14.0761 20.712V18H11.3656L11.3671 15.288H19.5001V18H16.7881V20.712H14.0761ZM15.2881 14.076V8.655H18.0001V11.367H20.7121V14.079L15.2881 14.076ZM9.05712 10.962V9.057H10.9621V10.962H9.05712ZM9.25962 26.7405V24.8355H11.1646V26.7405H9.25962ZM25.0396 10.9605V9.0585H26.9416V10.9635L25.0396 10.9605Z" fill="white"/>
</svg>
