<svg width="36" height="36" viewBox="0 0 36 36" fill="none" xmlns="http://www.w3.org/2000/svg">
<path d="M17.3655 24.345H18.6345L18.912 22.5C19.481 22.375 19.9495 22.21 20.3175 22.005C20.6855 21.8 21.036 21.511 21.369 21.138L23.1405 21.813L23.8035 20.706L22.3965 19.551C22.5615 19.009 22.644 18.492 22.644 18C22.644 17.508 22.5615 16.9905 22.3965 16.4475L23.8035 15.294L23.1405 14.187L21.3705 14.862C21.0365 14.489 20.6855 14.2 20.3175 13.995C19.9495 13.79 19.481 13.625 18.912 13.5L18.6345 11.655H17.3655L17.088 13.5C16.519 13.625 16.0505 13.79 15.6825 13.995C15.3145 14.2 14.964 14.489 14.631 14.862L12.8595 14.187L12.1965 15.294L13.6035 16.449C13.4385 16.991 13.356 17.508 13.356 18C13.356 18.492 13.4385 19.0095 13.6035 19.5525L12.1965 20.706L12.8595 21.813L14.6295 21.138C14.9635 21.511 15.3145 21.8 15.6825 22.005C16.0505 22.21 16.519 22.375 17.088 22.5L17.3655 24.345ZM18 21C17.175 21 16.469 20.7065 15.882 20.1195C15.295 19.5325 15.001 18.826 15 18C14.999 17.174 15.293 16.468 15.882 15.882C16.471 15.296 17.177 15.002 18 15C18.823 14.998 19.5295 15.292 20.1195 15.882C20.7095 16.472 21.003 17.178 21 18C20.997 18.822 20.7035 19.5285 20.1195 20.1195C19.5355 20.7105 18.829 21.004 18 21ZM8.424 30C7.733 30 7.1565 29.769 6.6945 29.307C6.2325 28.845 6.001 28.268 6 27.576V8.424C6 7.733 6.2315 7.1565 6.6945 6.6945C7.1575 6.2325 7.734 6.001 8.424 6H27.5775C28.2675 6 28.844 6.2315 29.307 6.6945C29.77 7.1575 30.001 7.734 30 8.424V27.5775C30 28.2675 29.769 28.844 29.307 29.307C28.845 29.77 28.268 30.001 27.576 30H8.424ZM8.424 28.5H27.5775C27.8075 28.5 28.019 28.404 28.212 28.212C28.405 28.02 28.501 27.808 28.5 27.576V8.424C28.5 8.193 28.404 7.981 28.212 7.788C28.02 7.595 27.808 7.499 27.576 7.5H8.424C8.193 7.5 7.981 7.596 7.788 7.788C7.595 7.98 7.499 8.192 7.5 8.424V27.5775C7.5 27.8075 7.596 28.019 7.788 28.212C7.98 28.405 8.1915 28.501 8.4225 28.5" fill="white"/>
</svg>
