<svg width="10" height="10" viewBox="0 0 10 10" fill="none" xmlns="http://www.w3.org/2000/svg">
<path fill-rule="evenodd" clip-rule="evenodd" d="M3.67149 7.82841C4.45254 7.04736 5.71887 7.04736 6.49992 7.82841L8.29286 9.62135C8.68338 10.0119 9.31655 10.0119 9.70707 9.62135V9.62135C10.0976 9.23082 10.0976 8.59766 9.70707 8.20714L7.91413 6.4142C7.13309 5.63315 7.13309 4.36682 7.91413 3.58577L9.70704 1.79287C10.0976 1.40234 10.0976 0.769178 9.70704 0.378653V0.378653C9.31652 -0.0118711 8.68335 -0.0118713 8.29283 0.378653L6.49992 2.17156C5.71887 2.95261 4.45254 2.95261 3.67149 2.17156L1.79649 0.296557C1.40597 -0.0939671 0.772803 -0.0939671 0.382278 0.296557V0.296557C-0.00824591 0.687082 -0.00824643 1.32025 0.382278 1.71077L2.25728 3.58577C3.03833 4.36682 3.03833 5.63315 2.25728 6.4142L0.382249 8.28923C-0.00827557 8.67976 -0.00827565 9.31292 0.382249 9.70344V9.70344C0.772773 10.094 1.40594 10.094 1.79646 9.70344L3.67149 7.82841Z" fill="#5B40E4"/>
</svg>
