<svg width="18" height="18" viewBox="0 0 18 18" fill="none" xmlns="http://www.w3.org/2000/svg">
<path d="M7.8 16.916C8.53733 15.6167 9.467 14.7227 10.589 14.234C11.7097 13.7447 12.68 13.5 13.5 13.5C13.8447 13.5 14.1713 13.5237 14.48 13.571C14.7893 13.6183 15.0933 13.6857 15.392 13.773C15.8307 13.2037 16.2083 12.5043 16.525 11.675C16.8417 10.8457 17 9.954 17 9C17 6.76667 16.225 4.875 14.675 3.325C13.125 1.775 11.2333 1 9 1C6.76667 1 4.875 1.775 3.325 3.325C1.775 4.875 1 6.76667 1 9C1 9.86533 1.128 10.6813 1.384 11.448C1.63933 12.2147 1.98433 12.9153 2.419 13.55C3.051 13.178 3.68567 12.91 4.323 12.746C4.96033 12.582 5.62833 12.5 6.327 12.5C6.745 12.5 7.15167 12.533 7.547 12.599C7.943 12.665 8.267 12.7347 8.519 12.808C8.32833 12.9307 8.155 13.055 7.999 13.181C7.84367 13.3063 7.68633 13.4487 7.527 13.608C7.40367 13.5747 7.22633 13.548 6.995 13.528C6.76367 13.5093 6.541 13.5 6.327 13.5C5.755 13.5 5.18733 13.5713 4.624 13.714C4.06067 13.856 3.53733 14.0693 3.054 14.354C3.67733 15.054 4.398 15.6183 5.216 16.047C6.03467 16.4757 6.896 16.766 7.8 16.916ZM9.003 18C7.759 18 6.589 17.764 5.493 17.292C4.39767 16.8193 3.44467 16.178 2.634 15.368C1.82333 14.558 1.18167 13.606 0.709 12.512C0.236333 11.418 0 10.2483 0 9.003C0 7.75767 0.236333 6.58767 0.709 5.493C1.181 4.39767 1.82133 3.44467 2.63 2.634C3.43867 1.82333 4.391 1.18167 5.487 0.709C6.583 0.236333 7.753 0 8.997 0C10.241 0 11.411 0.236333 12.507 0.709C13.6023 1.181 14.5553 1.82167 15.366 2.631C16.1767 3.44033 16.8183 4.39267 17.291 5.488C17.7637 6.58333 18 7.753 18 8.997C18 10.241 17.764 11.411 17.292 12.507C16.82 13.603 16.1787 14.556 15.368 15.366C14.5573 16.176 13.6053 16.8177 12.512 17.291C11.4187 17.7643 10.249 18.0007 9.003 18ZM6.5 10C5.66133 10 4.95167 9.70967 4.371 9.129C3.79033 8.54833 3.5 7.83867 3.5 7C3.5 6.16133 3.79033 5.45167 4.371 4.871C4.95167 4.29033 5.66133 4 6.5 4C7.33867 4 8.04833 4.29033 8.629 4.871C9.20967 5.45167 9.5 6.16133 9.5 7C9.5 7.83867 9.20967 8.54833 8.629 9.129C8.04833 9.70967 7.33867 10 6.5 10ZM6.5 9C7.04467 9 7.51433 8.803 7.909 8.409C8.303 8.01433 8.5 7.54467 8.5 7C8.5 6.45533 8.303 5.98567 7.909 5.591C7.51433 5.197 7.04467 5 6.5 5C5.95533 5 5.48567 5.197 5.091 5.591C4.697 5.98567 4.5 6.45533 4.5 7C4.5 7.54467 4.697 8.01433 5.091 8.409C5.48567 8.803 5.95533 9 6.5 9ZM13.5 11.385C12.8327 11.385 12.2683 11.1543 11.807 10.693C11.3457 10.2317 11.1153 9.66733 11.116 9C11.1167 8.33267 11.347 7.76833 11.807 7.307C12.267 6.84567 12.8313 6.61533 13.5 6.616C14.1687 6.61667 14.733 6.847 15.193 7.307C15.653 7.767 15.8833 8.33133 15.884 9C15.8847 9.66867 15.6543 10.233 15.193 10.693C14.7317 11.153 14.1673 11.3837 13.5 11.385Z" fill="#808080"/>
</svg>
