<svg width="352" height="352" viewBox="0 0 352 352" fill="none" xmlns="http://www.w3.org/2000/svg">
<path d="M168.667 293.333C156.444 293.333 146.055 289.056 137.5 280.5C128.944 271.944 124.667 261.556 124.667 249.333H154C154 253.489 155.408 256.975 158.224 259.791C161.04 262.607 164.521 264.01 168.667 264C172.812 263.99 176.298 262.582 179.124 259.776C181.95 256.97 183.353 253.489 183.333 249.333C183.314 245.178 181.906 241.697 179.109 238.891C176.313 236.084 172.832 234.676 168.667 234.667H29.3333V205.333H168.667C180.889 205.333 191.278 209.611 199.833 218.167C208.389 226.722 212.667 237.111 212.667 249.333C212.667 261.556 208.389 271.944 199.833 280.5C191.278 289.056 180.889 293.333 168.667 293.333ZM29.3333 146.667V117.333H227.333C233.689 117.333 238.944 115.256 243.1 111.1C247.255 106.944 249.333 101.689 249.333 95.3333C249.333 88.9778 247.255 83.7222 243.1 79.5667C238.944 75.4111 233.689 73.3333 227.333 73.3333C220.978 73.3333 215.722 75.4111 211.567 79.5667C207.411 83.7222 205.333 88.9778 205.333 95.3333H176C176 80.9111 180.952 68.7476 190.857 58.8427C200.762 48.9378 212.921 43.9902 227.333 44C241.746 44.0098 253.909 48.9622 263.824 58.8573C273.739 68.7525 278.686 80.9111 278.667 95.3333C278.647 109.756 273.699 121.919 263.824 131.824C253.948 141.729 241.785 146.676 227.333 146.667H29.3333ZM271.333 264V234.667C277.689 234.667 282.944 232.589 287.1 228.433C291.255 224.278 293.333 219.022 293.333 212.667C293.333 206.311 291.255 201.056 287.1 196.9C282.944 192.744 277.689 190.667 271.333 190.667H29.3333V161.333H271.333C285.755 161.333 297.919 166.286 307.824 176.191C317.729 186.096 322.676 198.254 322.667 212.667C322.657 227.079 317.709 239.243 307.824 249.157C297.939 259.072 285.775 264.02 271.333 264Z" fill="black"/>
</svg>
