<svg width="178" height="41" viewBox="0 0 178 41" fill="none" xmlns="http://www.w3.org/2000/svg">
<path fill-rule="evenodd" clip-rule="evenodd" d="M23.625 37.125L41.2903 29.7975C42.1685 29.4682 42.7503 28.6287 42.7503 27.6908V9.99676C42.7503 8.42579 41.1812 7.33841 39.7102 7.89002L23.625 13.5L7.5403 7.89002C6.06936 7.33841 4.50027 8.42579 4.50027 9.99676V27.6908C4.50027 28.6287 5.08206 29.4682 5.96025 29.7975L23.625 37.125ZM22.5 15.4906V34.2224L6.78655 27.7044L6.75027 27.6908L6.75027 9.99676L6.7747 10.0059L22.5 15.4906ZM24.75 34.2225V15.4906L40.4758 10.0059L40.5003 9.99676V27.6908L40.464 27.7044L24.75 34.2225Z" fill="#3726E0"/>
<path d="M24.3168 40.5C24.6031 40.5 24.8867 40.4454 25.1524 40.3391L45.8356 32.0658C46.6899 31.7241 47.25 30.8967 47.25 29.9767V13.5C47.25 12.2574 46.2426 11.25 45 11.25V28.4534C45 29.3734 44.4399 30.2007 43.5856 30.5424L24.4607 38.1924C23.9243 38.407 23.3259 38.407 22.7895 38.1924L3.66437 30.5424C2.81014 30.2007 2.25 29.3734 2.25 28.4534V11.25C1.00736 11.25 0 12.2574 0 13.5V29.9767C0 30.8967 0.56014 31.7241 1.41437 32.0658L22.0978 40.3391C22.3636 40.4454 22.6472 40.5 22.9334 40.5H24.3168Z" fill="#3726E0"/>
<path fill-rule="evenodd" clip-rule="evenodd" d="M33.108 7.69397C33.69 7.47573 33.9898 6.82359 33.7141 6.26652C31.8764 2.55328 28.049 0 23.6253 0C19.2016 0 15.3742 2.55328 13.5365 6.26652C13.2608 6.82359 13.5606 7.47573 14.1426 7.69397C14.7244 7.91217 15.367 7.61293 15.6565 7.06306C17.1632 4.20125 20.1664 2.25 23.6253 2.25C27.0842 2.25 30.0874 4.20125 31.5941 7.06306C31.8836 7.61293 32.5262 7.91217 33.108 7.69397ZM28.8934 9.27446C29.4754 9.05621 29.7778 8.4008 29.4655 7.8634C28.2968 5.85222 26.119 4.5 23.6253 4.5C21.1316 4.5 18.9538 5.85222 17.785 7.8634C17.4727 8.4008 17.7752 9.05621 18.3572 9.27446C18.939 9.49265 19.5776 9.18588 19.9334 8.6764C20.7467 7.51182 22.097 6.75 23.6253 6.75C25.1535 6.75 26.5039 7.51182 27.3172 8.6764C27.673 9.18588 28.3116 9.49265 28.8934 9.27446ZM24.2 11.0345C25.0464 10.7171 25.4732 9.68041 24.6736 9.25863C24.3606 9.09349 24.0038 9 23.6253 9C23.2467 9 22.89 9.09349 22.577 9.25863C21.7774 9.68041 22.2042 10.7171 23.0506 11.0345C23.4211 11.1734 23.8294 11.1734 24.2 11.0345Z" fill="#3726E0"/>
<g clip-path="url(#clip0_171_20)">
<path d="M54.288 30.5V12.14H59.877C61.245 12.14 62.325 12.338 63.117 12.734C63.927 13.13 64.503 13.688 64.845 14.408C65.205 15.128 65.385 15.974 65.385 16.946V17.702C65.385 19.124 64.773 20.213 63.549 20.969C64.413 21.311 65.07 21.806 65.52 22.454C65.97 23.102 66.195 23.876 66.195 24.776V25.532C66.195 26.522 66.015 27.395 65.655 28.151C65.295 28.889 64.701 29.465 63.873 29.879C63.045 30.293 61.938 30.5 60.552 30.5H54.288ZM59.877 15.11H57.528V19.7H59.877C60.597 19.7 61.137 19.538 61.497 19.214C61.875 18.872 62.064 18.413 62.064 17.837V16.946C62.064 16.37 61.875 15.92 61.497 15.596C61.137 15.272 60.597 15.11 59.877 15.11ZM60.552 22.67H57.528V27.53H60.552C61.308 27.53 61.884 27.35 62.28 26.99C62.676 26.63 62.874 26.144 62.874 25.532V24.641C62.874 24.029 62.676 23.552 62.28 23.21C61.884 22.85 61.308 22.67 60.552 22.67ZM72.8629 14.219H69.5959V11.006H72.8629V14.219ZM72.7819 30.5H69.6769V16.811H72.7819V30.5ZM88.5888 24.371C88.5888 26.333 88.1028 27.89 87.1308 29.042C86.1588 30.194 84.7368 30.77 82.8648 30.77C80.9208 30.77 78.9498 30.23 76.9518 29.15V10.52H80.0568V18.62C80.8848 17.792 81.5958 17.243 82.1898 16.973C82.7838 16.685 83.3958 16.541 84.0258 16.541C85.4658 16.541 86.5818 17.099 87.3738 18.215C88.1838 19.331 88.5888 20.897 88.5888 22.913V24.371ZM83.1888 19.43C82.7568 19.43 82.2978 19.556 81.8118 19.808C81.3438 20.06 80.7588 20.555 80.0568 21.293V27.422C80.5428 27.62 80.9838 27.764 81.3798 27.854C81.7938 27.944 82.1988 27.989 82.5948 27.989C83.6028 27.989 84.3228 27.665 84.7548 27.017C85.1868 26.369 85.4028 25.487 85.4028 24.371V22.913C85.4028 21.707 85.2048 20.825 84.8088 20.267C84.4308 19.709 83.8908 19.43 83.1888 19.43ZM92.0872 26.639V10.52H95.1922V26.639C95.1922 26.909 95.2552 27.17 95.3812 27.422C95.5252 27.656 95.7952 27.773 96.1912 27.773H96.6232V30.635H95.8672C94.8412 30.635 94.0582 30.437 93.5182 30.041C92.9782 29.645 92.6002 29.141 92.3842 28.529C92.1862 27.917 92.0872 27.287 92.0872 26.639ZM102.816 14.219H99.5491V11.006H102.816V14.219ZM102.735 30.5H99.6301V16.811H102.735V30.5ZM118.218 22.832V24.452C118.218 26.36 117.696 27.89 116.652 29.042C115.608 30.194 114.132 30.77 112.224 30.77C110.316 30.77 108.84 30.194 107.796 29.042C106.752 27.89 106.23 26.36 106.23 24.452V22.832C106.23 20.924 106.743 19.403 107.769 18.269C108.813 17.117 110.298 16.541 112.224 16.541C114.15 16.541 115.626 17.117 116.652 18.269C117.696 19.403 118.218 20.924 118.218 22.832ZM115.032 22.832C115.032 21.734 114.789 20.879 114.303 20.267C113.817 19.637 113.124 19.322 112.224 19.322C111.324 19.322 110.631 19.637 110.145 20.267C109.659 20.879 109.416 21.734 109.416 22.832V24.452C109.416 25.55 109.659 26.414 110.145 27.044C110.631 27.674 111.324 27.989 112.224 27.989C113.124 27.989 113.817 27.674 114.303 27.044C114.789 26.414 115.032 25.55 115.032 24.452V22.832ZM119.917 15.245V12.14H133.417V15.245H128.287V30.5H125.047V15.245H119.917ZM144.698 29.717C143.762 30.095 142.88 30.365 142.052 30.527C141.224 30.689 140.441 30.77 139.703 30.77C137.669 30.77 136.13 30.194 135.086 29.042C134.042 27.89 133.52 26.36 133.52 24.452V22.832C133.52 21.554 133.754 20.447 134.222 19.511C134.69 18.575 135.356 17.846 136.22 17.324C137.084 16.802 138.101 16.541 139.271 16.541C140.225 16.541 141.116 16.739 141.944 17.135C142.79 17.513 143.474 18.116 143.996 18.944C144.536 19.754 144.806 20.798 144.806 22.076C144.806 22.454 144.779 22.859 144.725 23.291C144.671 23.705 144.581 24.146 144.455 24.614H136.517C136.553 25.73 136.832 26.567 137.354 27.125C137.876 27.683 138.713 27.962 139.865 27.962C140.477 27.962 141.107 27.89 141.755 27.746C142.421 27.602 143.105 27.386 143.807 27.098L144.698 29.717ZM139.271 19.16C138.443 19.16 137.795 19.43 137.327 19.97C136.877 20.492 136.616 21.248 136.544 22.238H141.728C141.746 22.148 141.755 22.067 141.755 21.995C141.755 21.905 141.755 21.824 141.755 21.752C141.755 20.888 141.512 20.24 141.026 19.808C140.54 19.376 139.955 19.16 139.271 19.16ZM150.759 22.859V24.452C150.759 25.604 150.966 26.468 151.38 27.044C151.794 27.62 152.46 27.908 153.378 27.908C153.828 27.908 154.332 27.854 154.89 27.746C155.466 27.62 156.087 27.431 156.753 27.179L157.644 29.798C156.834 30.122 156.069 30.365 155.349 30.527C154.629 30.689 153.918 30.77 153.216 30.77C151.416 30.77 150.039 30.194 149.085 29.042C148.131 27.89 147.654 26.36 147.654 24.452V22.859C147.654 20.933 148.131 19.403 149.085 18.269C150.039 17.117 151.416 16.541 153.216 16.541C153.9 16.541 154.593 16.622 155.295 16.784C155.997 16.946 156.735 17.18 157.509 17.486L156.618 20.159C155.322 19.655 154.242 19.403 153.378 19.403C152.46 19.403 151.794 19.691 151.38 20.267C150.966 20.825 150.759 21.689 150.759 22.859ZM167.182 19.43C166.732 19.43 166.219 19.538 165.643 19.754C165.067 19.97 164.383 20.393 163.591 21.023V30.5H160.486V10.52H163.591V18.512C164.419 17.81 165.193 17.306 165.913 17C166.633 16.694 167.371 16.541 168.127 16.541C169.441 16.541 170.44 16.964 171.124 17.81C171.808 18.638 172.15 19.808 172.15 21.32V30.5H169.045V21.698C169.045 20.186 168.424 19.43 167.182 19.43Z" fill="black"/>
</g>
<defs>
<clipPath id="clip0_171_20">
<rect width="123.75" height="31.5" fill="white" transform="translate(54 4.5)"/>
</clipPath>
</defs>
</svg>
